<svg width="23" height="23" viewBox="0 0 23 23" fill="none" xmlns="http://www.w3.org/2000/svg">
<path d="M7.49996 8.08333H7.74996V7.83333V2.94444V2.69444H7.49996H2.61107H2.36107V2.94444V7.83333V8.08333H2.61107H7.49996ZM7.49996 20.3056H7.74996V20.0556V15.1667V14.9167H7.49996H2.61107H2.36107V15.1667V20.0556V20.3056H2.61107H7.49996ZM19.7222 8.08333H19.9722V7.83333V2.94444V2.69444H19.7222H14.8333H14.5833V2.94444V7.83333V8.08333H14.8333H19.7222ZM19.7222 20.3056H19.9722V20.0556V15.1667V14.9167H19.7222H14.8333H14.5833V15.1667V20.0556V20.3056H14.8333H19.7222ZM9.6944 10.0278H0.416626V0.75H9.6944V10.0278ZM9.6944 22.25H0.416626V12.9722H9.6944V22.25ZM21.9166 10.0278H12.6388V0.75H21.9166V10.0278ZM21.9166 22.25H12.6388V12.9722H21.9166V22.25Z" fill="black" stroke="white" stroke-width="0.5"/>
</svg>
