<svg width="21" height="24" viewBox="0 0 21 24" fill="none" xmlns="http://www.w3.org/2000/svg">
<path d="M13.4992 8.21846e-06H8.36229C8.16202 -0.000794775 7.96558 0.0572604 7.79549 0.167522C7.62539 0.277784 7.48851 0.435793 7.40053 0.623446L13.4992 8.21846e-06ZM13.4992 8.21846e-06C13.6999 -0.000141936 13.8967 0.0581305 14.0674 0.16827C14.2381 0.278409 14.3759 0.436046 14.4654 0.623446M13.4992 8.21846e-06L14.4654 0.623446M14.4654 0.623446L14.8879 1.50001L14.4654 0.623446ZM4.00554 21.8457C4.02897 22.2358 4.19387 22.5956 4.45774 22.8542C4.72068 23.1118 5.06156 23.2499 5.4096 23.25L4.00554 21.8457ZM4.00554 21.8457C4.00554 21.8457 4.00553 21.8457 4.00553 21.8457M4.00554 21.8457L4.00553 21.8457M4.00553 21.8457L3.10043 6.75001H18.7655M4.00553 21.8457L18.7655 6.75001M18.7655 6.75001L17.8604 21.8457C17.8604 21.8457 17.8604 21.8457 17.8604 21.8457C17.837 22.2358 17.6721 22.5956 17.4082 22.8542C17.1453 23.1118 16.8044 23.2499 16.4563 23.25C16.4563 23.25 16.4563 23.25 16.4562 23.25H5.4097L18.7655 6.75001ZM14.2122 1.82562L14.4168 2.25001H14.8879L20.25 2.25001V3.75001H1.61597V2.25001L6.97808 2.25001H7.44918L7.65371 1.82562L8.07616 0.949061L8.0762 0.94908L8.07961 0.941814C8.10947 0.878125 8.15376 0.829069 8.20344 0.796865C8.25277 0.764886 8.30669 0.749791 8.35928 0.750002V0.750008H8.36229L13.4992 0.750008L13.4997 0.750008C13.5542 0.749967 13.6099 0.765637 13.6608 0.798478C13.712 0.831535 13.7576 0.881687 13.7886 0.94664L13.7898 0.949061L14.2122 1.82562Z" stroke="#D64848" stroke-width="1.5"/>
</svg>
