<svg width="26" height="25" viewBox="0 0 26 25" fill="none" xmlns="http://www.w3.org/2000/svg">
<path d="M8.07433 13.8482C8.0575 13.8698 8.04066 13.8922 8.03313 13.9196L6.73262 18.6877C6.65676 18.9653 6.73463 19.2645 6.93987 19.4752C7.0936 19.6252 7.29608 19.7079 7.51186 19.7079C7.5832 19.7079 7.65429 19.6993 7.72463 19.6807L12.4588 18.3895C12.4664 18.3895 12.4701 18.3961 12.4756 18.3961C12.5299 18.3961 12.5834 18.3765 12.6239 18.335L25.2836 5.67722C25.6597 5.30066 25.8659 4.7877 25.8659 4.23002C25.8659 3.59749 25.5976 2.96572 25.1278 2.49723L23.9323 1.29975C23.4636 0.829993 22.8305 0.56123 22.1985 0.56123C21.6406 0.56123 21.1277 0.767466 20.7508 1.14302L8.093 13.804C8.07993 13.8161 8.0837 13.8339 8.07416 13.848M24.0445 4.43713L22.7869 5.69365L20.7484 3.62272L21.9881 2.38305C22.184 2.18611 22.5639 2.21474 22.7889 2.44083L23.9854 3.63832C24.1102 3.76291 24.1813 3.92896 24.1813 4.093C24.1806 4.22764 24.1326 4.34948 24.0444 4.43715M10.3255 14.0467L19.4605 4.91174L21.5001 6.98395L12.3818 16.1016L10.3255 14.0467ZM8.66129 17.751L9.32148 15.3282L11.0824 17.0891L8.66129 17.751ZM24.8464 9.45397C24.3671 9.45397 23.9743 9.84359 23.9725 10.3291V22.1304C23.9725 22.7493 23.4698 23.2518 22.8501 23.2518L2.88685 23.252C2.26788 23.252 1.76345 22.7494 1.76345 22.1306V2.86898C1.76345 2.24951 2.26787 1.74661 2.88685 1.74661H15.744C16.2261 1.74661 16.6169 1.35523 16.6169 0.873173C16.6169 0.392114 16.2258 0.000251204 15.744 0.000251204L2.75373 0C1.24499 0 0.0170898 1.22687 0.0170898 2.73664V22.2639C0.0170898 23.7736 1.24499 25 2.75373 25H22.9819C24.4917 25 25.719 23.7736 25.719 22.2639V10.3237C25.717 9.84369 25.3251 9.4541 24.8461 9.4541" fill="#CE9300"/>
</svg>
