<svg width="23" height="23" viewBox="0 0 23 23" fill="none" xmlns="http://www.w3.org/2000/svg">
<path fill-rule="evenodd" clip-rule="evenodd" d="M22.5 2.37807C22.5 1.88 22.3021 1.4023 21.95 1.0502C21.5977 0.697924 21.12 0.5 20.6219 0.5H2.37807C1.88 0.5 1.4023 0.697909 1.0502 1.0502C0.697925 1.40228 0.5 1.87996 0.5 2.37807V20.6219C0.5 21.12 0.697909 21.5977 1.0502 21.95C1.40229 22.3021 1.87996 22.5 2.37807 22.5H20.6219C21.12 22.5 21.5977 22.3021 21.95 21.95C22.3021 21.5977 22.5 21.12 22.5 20.6219V2.37807ZM20.8902 9.08563V20.6219C20.8904 20.693 20.8622 20.7615 20.8119 20.8119C20.7616 20.8622 20.6931 20.8903 20.622 20.8901H9.08569V9.08543L20.8902 9.08563ZM7.47556 20.8903H2.37807C2.30697 20.8905 2.23847 20.8624 2.18815 20.8121C2.13783 20.7617 2.10966 20.6932 2.10987 20.6221V9.08584H7.47541L7.47556 20.8903ZM20.8902 7.47572H2.11002V2.37822C2.10982 2.30713 2.13798 2.23862 2.1883 2.1883C2.23883 2.13798 2.30713 2.10982 2.37843 2.11002H20.6218C20.6929 2.10982 20.7614 2.13798 20.8117 2.1883C20.862 2.23863 20.8902 2.30713 20.89 2.37822L20.8902 7.47572Z" fill="black"/>
</svg>
