<svg width="26" height="23" viewBox="0 0 26 23" fill="none" xmlns="http://www.w3.org/2000/svg">
<path id="Vector" d="M3.48345 11.7521H3.23345H1.0461C0.716939 11.7521 0.565464 12.1415 0.792349 12.3613L0.795521 12.3643L0.795493 12.3644L4.20452 15.7856C4.20455 15.7856 4.20459 15.7857 4.20462 15.7857C4.35137 15.9324 4.57179 15.9323 4.71852 15.7856C4.71854 15.7856 4.71856 15.7856 4.71857 15.7856L8.12759 12.3644L8.12791 12.364C8.34763 12.1443 8.19421 11.7521 7.86477 11.7521H5.67742H5.42742V11.5021C5.42742 6.59708 9.42721 2.63538 14.3567 2.69826L14.3569 2.69826C19.0381 2.76118 22.9723 6.69535 23.0352 11.3766L23.0352 11.3767C23.0981 16.2938 19.1366 20.306 14.2313 20.306C12.2066 20.306 10.3319 19.6143 8.84731 18.4445C8.45648 18.1422 7.91419 18.1728 7.56498 18.522C7.15286 18.9341 7.18996 19.6244 7.63798 19.9675L7.64087 19.9698C9.45552 21.4024 11.7353 22.25 14.2313 22.25C20.262 22.25 25.1464 17.2701 24.9793 11.1913C24.8241 5.59289 20.1406 0.909383 14.5422 0.75417L3.48345 11.7521ZM3.48345 11.7521V11.5021M3.48345 11.7521V11.5021M3.48345 11.5021C3.48345 5.47144 8.46338 0.587003 14.5421 0.754169L3.48345 11.5021ZM14.5923 11.6732V11.8155L14.7147 11.8882L18.233 13.9772C18.2331 13.9773 18.2333 13.9773 18.2334 13.9774C18.5424 14.1631 18.651 14.5722 18.4642 14.8942C18.2781 15.2027 17.8691 15.3108 17.5474 15.1237C17.5472 15.1235 17.5469 15.1234 17.5467 15.1232L13.7367 12.8641C13.7366 12.864 13.7364 12.8639 13.7363 12.8638C13.4439 12.6882 13.2593 12.3658 13.2593 12.0276V7.53068C13.2593 7.16774 13.5629 6.86419 13.9258 6.86419C14.2909 6.86419 14.5923 7.1699 14.5923 7.51846V11.6732Z" fill="black" stroke="white" stroke-width="0.5"/>
</svg>
