<svg width="27" height="26" viewBox="0 0 27 26" fill="none" xmlns="http://www.w3.org/2000/svg">
<path d="M4.48432 3.98449C2.09309 6.37546 0.75 9.61856 0.75 13C0.75 16.3813 2.0931 19.6241 4.48431 22.0155C6.8753 24.4067 10.1184 25.75 13.4999 25.75C16.8812 25.75 20.1241 24.4067 22.5155 22.0155C24.9067 19.6245 26.25 16.3815 26.25 13V12.9997C26.2463 9.61942 24.9016 6.37857 22.5114 3.98841C20.1214 1.59817 16.8805 0.253753 13.5005 0.25L13.4249 0.249916L13.4241 0.250448C10.07 0.270353 6.85729 1.61114 4.48432 3.98449ZM4.48432 3.98449L4.66109 4.16127L4.48432 3.98449ZM21.3633 20.863L21.3633 20.863C19.2775 22.949 16.4496 24.1224 13.4999 24.1261L13.4264 24.1262C10.502 24.1069 7.70135 22.9367 5.63239 20.8675C3.54606 18.7808 2.37357 15.9509 2.37357 13C2.37357 10.049 3.54575 7.21882 5.63236 5.13256C7.71901 3.04626 10.549 1.87378 13.4999 1.87378C16.4507 1.87378 19.2806 3.04594 21.3675 5.13256C23.4542 7.21909 24.6264 10.0489 24.6265 12.9997C24.6229 15.9495 23.4494 18.7772 21.3633 20.863Z" fill="black" stroke="black" stroke-width="0.5"/>
<path d="M13.9125 5.1563L13.9125 5.13028L13.6723 5.121C12.4595 5.07417 11.2796 5.52312 10.405 6.36456L10.405 6.36458C9.53031 7.20621 9.03613 8.36761 9.03613 9.58138C9.03613 10.0298 9.39962 10.3933 9.84803 10.3933C10.2963 10.3933 10.6597 10.0297 10.6597 9.58138L10.6597 9.58119C10.6591 8.80857 10.9736 8.06871 11.5304 7.53286C12.0869 6.99737 12.8373 6.71157 13.609 6.74134C14.3209 6.77899 14.994 7.07896 15.4981 7.58308C16.0022 8.0872 16.3022 8.76028 16.3398 9.47222C16.3767 10.4157 15.9424 11.3159 15.1806 11.874L15.1806 11.874L15.1772 11.8765C13.6011 13.0723 12.705 14.9598 12.775 16.9369V17.4157C12.775 17.631 12.8606 17.8374 13.0125 17.9895L13.0128 17.9899C13.165 18.1418 13.3713 18.2274 13.5867 18.2274C13.8021 18.2274 14.0086 18.1418 14.1607 17.9897C14.3129 17.8375 14.3986 17.6311 14.3986 17.4157V16.9324H14.3988L14.3984 16.9222C14.339 15.4718 14.9893 14.0832 16.1413 13.2001C17.1429 12.4654 17.7932 11.3465 17.9354 10.1124C18.078 8.87742 17.6989 7.63896 16.8898 6.69538L16.8898 6.69536C16.1329 5.81286 15.064 5.2627 13.9125 5.1563Z" fill="black" stroke="black" stroke-width="0.5"/>
<path d="M13.4996 20.3203C14.0254 20.3203 14.4518 19.8938 14.4518 19.3679C14.4518 18.8422 14.0254 18.4158 13.4996 18.4158C12.9737 18.4158 12.5472 18.8422 12.5472 19.3679C12.5472 19.8939 12.9737 20.3203 13.4996 20.3203Z" fill="black" stroke="black" stroke-width="0.5"/>
</svg>
