<svg width="30" height="26" viewBox="0 0 30 26" fill="none" xmlns="http://www.w3.org/2000/svg">
<path d="M0.829404 25.3877L0.75 25.4134V25.0696C0.75 22.1199 1.66219 19.3808 3.22015 17.1197L3.22015 17.1197C4.82248 14.7942 7.10747 12.9761 9.78604 11.9551C9.78605 11.9551 9.78605 11.9551 9.78606 11.9551L9.8751 12.1887C10.0971 12.1041 10.3455 12.2158 10.4302 12.4377L0.829404 25.3877ZM0.829404 25.3877C0.943663 25.6032 1.17036 25.7499 1.43111 25.7499C1.80721 25.7499 2.11165 25.445 2.11165 25.0694C2.11165 22.4021 2.93396 19.9298 4.33852 17.8912L4.33853 17.8912C5.78534 15.791 7.85026 14.149 10.2702 13.2264L10.1811 12.9928L0.829404 25.3877ZM19.7775 11.9551C19.4263 11.8212 19.033 11.9979 18.8996 12.349C18.766 12.7 18.9425 13.093 19.2933 13.2264C21.7132 14.1488 23.7782 15.7911 25.225 17.8912L25.4309 17.7494L25.225 17.8912C26.6295 19.93 27.4519 22.4022 27.4519 25.0694C27.4519 25.4455 27.7568 25.75 28.1324 25.75C28.5085 25.75 28.8129 25.445 28.8129 25.0694C28.8129 22.1198 27.9007 19.3807 26.3428 17.1195C24.7409 14.7942 22.4558 12.9762 19.7775 11.9552L19.7775 11.9551Z" fill="black" stroke="black" stroke-width="0.5"/>
<path d="M19.5622 2.23011C20.785 3.45298 21.5422 5.14344 21.5422 7.01007C21.5422 8.87675 20.7854 10.5672 19.5622 11.7901L19.5622 2.23011ZM19.5622 2.23011C18.3393 1.00685 16.6489 0.25 14.7822 0.25C12.9155 0.25 11.2251 1.0072 10.0022 2.23006C8.77894 3.45297 8.02209 5.14338 8.02209 7.01007C8.02209 8.87672 8.77931 10.5672 10.0022 11.7901C11.2251 13.0133 12.9156 13.7701 14.7822 13.7701C16.6488 13.7701 18.3393 13.0129 19.5621 11.7901L19.5622 2.23011ZM14.7822 1.61134C16.2733 1.61134 17.6226 2.21537 18.5997 3.19251C19.5769 4.16965 20.1809 5.51924 20.1809 7.01007C20.1809 8.50119 19.5769 9.85049 18.5997 10.8276C17.6226 11.8048 16.273 12.4088 14.7822 12.4088C13.291 12.4088 11.9417 11.8048 10.9646 10.8276C9.98745 9.85018 9.38343 8.50087 9.38343 7.01007C9.38343 5.51924 9.98747 4.16965 10.9646 3.19251C11.9417 2.21538 13.2913 1.61134 14.7822 1.61134Z" fill="black" stroke="black" stroke-width="0.5"/>
</svg>
